<svg id="visual" viewBox="0 0 900 600" width="900" height="600" xmlns="http://www.w3.org/2000/svg" xmlns:xlink="http://www.w3.org/1999/xlink" version="1.1"><path d="M0 241L37.5 232C75 223 150 205 225 195C300 185 375 183 450 197C525 211 600 241 675 241C750 241 825 211 862.5 196L900 181L900 0L862.5 0C825 0 750 0 675 0C600 0 525 0 450 0C375 0 300 0 225 0C150 0 75 0 37.5 0L0 0Z" fill="#2661be"></path><path d="M0 457L37.5 454C75 451 150 445 225 441C300 437 375 435 450 439C525 443 600 453 675 454C750 455 825 447 862.5 443L900 439L900 179L862.5 194C825 209 750 239 675 239C600 239 525 209 450 195C375 181 300 183 225 193C150 203 75 221 37.5 230L0 239Z" fill="#3686fd"></path><path d="M0 601L37.5 601C75 601 150 601 225 601C300 601 375 601 450 601C525 601 600 601 675 601C750 601 825 601 862.5 601L900 601L900 437L862.5 441C825 445 750 453 675 452C600 451 525 441 450 437C375 433 300 435 225 439C150 443 75 449 37.5 452L0 455Z" fill="#7bacff"></path></svg>